#!OML:ASF F:\VICON\USERDATA\INSTALL\rory3\rory3.ASF
:FULLY-SPECIFIED
:DEGREES
46
root 0.17127290829564668 17.34493512685984 19.016424876147788 -0.009654840578166124 -4.390884234749977 -5.462004419130273
lfemur -18.958644919592558 3.9754243420366278 -10.310715794888758
ltibia 81.50136269920651
lfoot -0.35998264384310374 -3.3290891247460412
ltoes -0.6958128918142901
rfemur -18.797516666206437 5.046878021865712 34.00255640401897
rtibia 46.24079949217918
rfoot -20.544243910147188 -15.518173527934898
rtoes 2.5079566313777018
lowerback 13.91190888300958 0.4776942609732965 2.9746358104069044
upperback 0.3439309628288067 1.4810462566153255 3.296156717138637
thorax -7.722410455546811 0.6635540750010909 1.5268373069182553
lowerneck -19.732273871943 -2.7928654541176434 -1.474284714500002
upperneck 16.500484393362598 -3.532640057326133 0.699258261513628
head 8.373482239791885 -1.6752558945140597 -0.011612023580095499
lclavicle -3.008901438458835e-15 1.6085263117928302e-16
lhumerus -40.17823555035893 -7.287045594503014 91.6481981078874
lradius 56.418533915161674
lwrist 18.0272763021569
lhand -25.87698649592092 13.437896148690477
lfingers 7.125019999999999
lthumb 0.6645610892186687 43.4116060556236
rclavicle -3.008901438458835e-15 1.6085263117928302e-16
rhumerus -36.33125588722777 -4.362127841810707 -87.04946428394844
rradius 65.38865653785025
rwrist -1.7499265002086473
rhand -17.62171497152766 30.598605294414746
rfingers 7.125019999999999
rthumb 8.635062783814151 0.5595823165826646
47
root 0.15543096965471287 17.381615911868405 19.97358329272901 0.28129916902670493 -3.57991407730686 -5.698692225595545
lfemur -22.961960884099426 3.9772707096578346 -10.09752091326706
ltibia 82.4467768521865
lfoot -1.9093884057922583 -2.1864276257675472
ltoes -1.337279855364331
rfemur -15.462253121287374 4.81081696064526 34.505692892356834
rtibia 45.98688871616198
rfoot -20.79402804031312 -15.87734513542847
rtoes -0.33066882060562985
lowerback 13.849633347764069 0.7102851111137738 3.492757823334479
upperback 0.30375023664962036 1.8674199206771542 3.2726149077716062
thorax -7.694475697973999 0.828228404053405 1.1822124104576501
lowerneck -19.774921006526046 -2.9528631729096695 -1.4830936783729176
upperneck 16.384711951863977 -3.7645622584466207 0.8967316806868276
head 8.352663447291672 -1.7718004572240067 0.02301007723603682
lclavicle -2.5304898515471442e-15 4.962780375467625e-16
lhumerus -41.531041160710764 -7.3625156797952584 92.06478556681347
lradius 57.3293147791524
lwrist 18.370188573124747
lhand -25.37327868672056 13.446576792262567
lfingers 7.125019999999999
lthumb 1.1510042391484063 43.408564118931295
rclavicle -2.5304898515471442e-15 4.962780375467625e-16
rhumerus -34.86080330839778 -3.1137644485535043 -86.75023014992217
rradius 66.442354957855
rwrist -1.982685525896166
rhand -17.549810616063176 30.768869713076324
rfingers 7.125019999999999
rthumb 8.704502571225081 0.7125342230842704
48
root 0.14898996296808753 17.443519258052063 20.661637028564776 0.5449301103170061 -2.8299070360134726 -5.867701383288364
lfemur -26.689273257221835 3.6263998976970644 -10.399142571510472
ltibia 81.33974418506996
lfoot -3.498283108912844 -1.2344313619782623
ltoes -2.392790731879354
rfemur -12.148434569067668 4.433692587631398 34.72440773749778
rtibia 44.685834637099994
rfoot -20.136925962582342 -15.197794348949753
rtoes -2.9620357677505096
lowerback 13.698515335430944 0.9509590126998482 3.992843731653134
upperback 0.21954176215058058 2.253230511803643 3.1601680348725285
thorax -7.647924668441966 0.9903658843019789 0.6763466047397617
lowerneck -19.77027803639857 -3.1432722001904843 -1.5432584378835523
upperneck 16.359373865108896 -4.038652236345527 1.0947908968195503
head 8.35582186830566 -1.887567625678366 0.05592598316910735
lclavicle -2.3866681408530084e-15 5.971147624857741e-16
lhumerus -43.09699462631546 -7.519997343867542 92.38807072918102
lradius 58.457460275206266
lwrist 18.774785757885308
lhand -24.82362792185741 13.330108665727101
lfingers 7.125019999999999
lthumb 1.6818099993401805 43.27788624164227
rclavicle -2.3866681408530084e-15 5.971147624857741e-16
rhumerus -33.68555579051858 -2.2242728823070466 -86.45890620575967
rradius 67.62494565207982
rwrist -2.319014660600156
rhand -17.523613533035093 30.99180327538342
rfingers 7.125019999999999
rthumb 8.729846662477009 0.9255477015671354
49
root 0.15607415281083073 17.53221976423811 21.643077196494875 0.7730270730121462 -2.0739058776745773 -5.915798725642216
lfemur -29.55228983715367 2.996831562649109 -10.945443187927282
ltibia 78.69282882931797
lfoot -4.653709711070569 -0.4650509089176582
ltoes -3.6748054619194894
rfemur -8.333566523612859 4.020413040277266 34.81522052866023
rtibia 42.71861702493044
rfoot -18.13443495765695 -13.517977904508873
rtoes -4.993039377454128
lowerback 13.484377751247159 1.2154312376668424 4.572948192251456
upperback 0.10645482119328659 2.6690725008679737 3.003102474387706
thorax -7.572235832149286 1.1628310397669597 0.09840592852407648
lowerneck -19.671892160774142 -3.33369187459735 -1.6139681018023566
upperneck 16.45238256978199 -4.313029271391593 1.2813884699521432
head 8.387576033778608 -2.0050717965589087 0.08516448376921915
lclavicle -2.0610305642004613e-15 8.254267863080771e-16
lhumerus -44.62511231730392 -7.425177564238062 92.57039998040017
lradius 59.70559759140473
lwrist 19.15583854900354
lhand -24.33278882927777 13.306484567539604
lfingers 7.125019999999999
lthumb 2.155817818139888 43.24216958405557
rclavicle -2.0610305642004613e-15 8.254267863080771e-16
rhumerus -32.69920085171081 -1.527760577337911 -86.13411212190073
rradius 68.86882922229364
rwrist -2.6128064067475685
rhand -17.498297419031502 31.231747826119374
rfingers 7.125019999999999
rthumb 8.75436273272016 1.1967912873925777
50
root 0.16999107051380163 17.63822449296082 22.692013075285658 0.9208596917882802 -1.35582436944948 -5.935907136447094
lfemur -31.828424599787535 2.078235454536307 -11.697738439227818
ltibia 74.34371285273357
lfoot -5.507549511017212 -0.12130403578615567
ltoes -5.220519631489186
rfemur -4.4019803741678505 3.5867862489561273 34.68326679497097
rtibia 39.946968683900195
rfoot -14.807589503250611 -11.150809232014705
rtoes -6.02115355663458
lowerback 13.188958391590912 1.4617496387837965 5.149428321993333
upperback -0.04577361937826052 3.048830271407245 2.8004565340864094
thorax -7.480284352638287 1.3178323704448835 -0.5579655249447715
lowerneck -19.474610853587063 -3.5235066748310797 -1.6924497815951076
upperneck 16.62715966716258 -4.5883823367985554 1.4272488341876386
head 8.42990220428002 -2.1251225971835757 0.10381998594561748
lclavicle -1.9550952102216437e-15 8.997005102174098e-16
lhumerus -46.32091835872549 -6.976512980039738 92.54724772031774
lradius 60.77068032834838
lwrist 19.422524658171913
lhand -24.031067589751526 13.427665328384261
lfingers 7.125019999999999
lthumb 2.447189064705034 43.356096900752014
rclavicle -1.9550952102216437e-15 8.997005102174098e-16
rhumerus -32.019791639723145 -1.0295812135203035 -85.85819156129442
rradius 69.97960781885932
rwrist -2.8370893595032634
rhand -17.43873887949325 31.35713308595416
rfingers 7.125019999999999
rthumb 8.811906898170177 1.4246948289015624
